<?xml version="1.0" encoding="UTF-8"?>
<svg width="66.146mm" height="75.434mm" version="1.1" viewBox="0 0 66.146 75.434" xmlns="http://www.w3.org/2000/svg">
 <g transform="translate(-196.67 -268.4)">
  <rect x="196.67" y="268.4" width="66.146" height="75.434" fill="#fff" style="paint-order:markers fill stroke"/>
  <g transform="matrix(.24966 0 0 .24966 147.57 257.99)">
   <path transform="scale(.26458)" d="m1243.3 157.57c-31.873 9.6e-4 -57.711 25.549-57.711 57.064 0.029 19.857 10.497 38.271 27.637 48.619h-125.94l21.094 35.734h108.1v11.258c-95.574 13.364-166.72 95.055-166.84 191.56 0.057 40.343 12.711 79.66 36.195 112.46h-252.53c4.6931 28.411 15.543 32.068 28.17 35.494 121.36 32.927 197.9 91.9 269.86 160.39 84.953-47.817 128.31 14.626 161.74 63.026 3.8726-4.5942 6.3051-7.442 9.3625-11.052 0-6.5277-6.6192-63.301 17.49-66.141l12.791 36.014v0.0117c78.926-77.678 158.31-145.87 292.4-182.25 12.627-3.4261 23.477-7.083 28.17-35.494h-252.63c23.522-32.79 36.212-72.109 36.299-112.46-0.1052-96.511-71.257-178.21-166.84-191.58v-11.236h108.1l21.096-35.734h-125.89c17.122-10.359 27.57-28.771 27.59-48.619 1e-4 -31.516-25.839-57.065-57.713-57.064zm0 28.924c15.719-8.2e-4 28.462 12.599 28.461 28.141-5e-4 15.541-12.743 28.139-28.461 28.139-15.717-2.1e-4 -28.458-12.598-28.459-28.139-6e-4 -15.541 12.741-28.14 28.459-28.141z" fill="#313188" style="paint-order:markers fill stroke"/>
   <circle cx="328.96" cy="132.77" r="39.359" fill="#fff" style="paint-order:markers fill stroke"/>
   <path transform="scale(.26458)" d="m1189.1 803.26c-36.772 0-69.426 19.371-89.23 64.443 20.121-16.321 39.684-22.881 61.211-22.881 51.75 0 75.935 54.718 130.32 97.449 28.916 22.719 62.457 42.881 102.85 51.783 23.545 5.1888 50.356 6.7383 80.373 6.7383-59.599-9.227-101.29-31.958-133.12-58.859-70.039-59.195-86.036-138.67-152.4-138.67zm124.62 9.584c-24.445 145.9 149.36 191.07 312.12 191.07-231.3-43.881-281.39-107.3-312.12-191.07zm-184.79 59.098c-35.886 0-60.201 16.942-86.684 53.814-76.227-36.159-108.84 42.025-99.16 78.162 29.875-78.386 107.51-37.406 106.77-35.9 23.513-33.992 52.349-45.706 84.16-44.967 69.663 1.6186 123.7 80.867 227.15 80.867h40.041c-33.596-4.1516-44.996-1.83-103.37-33.82-58.371-31.99-86.916-98.156-168.91-98.156z" fill="#00a4e5" style="paint-order:markers fill stroke"/>
   <path d="m294.23 123.67a17.954 17.954 0 0 0 34.736 9.0984 17.954 17.954 0 0 1 34.736 9.0984 35.908 35.908 45 0 1-69.471-18.197z" fill="#313188" stroke-width="2.9923"/>
   <path transform="scale(.26458)" d="m947.99 1052.6v8.0899h-36.053c6.4276 2.8015 8.9453 7.1666 8.9453 12.976v7.9375h19.535a39.462 39.462 0 0 0-17.557 32.803 39.462 39.462 0 0 0 39.461 39.461 39.462 39.462 0 0 0 39.459-39.461 39.462 39.462 0 0 0-17.574-32.803h19.553v-20.914h-27.107v-8.0899zm501.32 0v8.0899h-36.053c6.4275 2.8015 8.9453 7.1666 8.9453 12.976v7.9375h19.537a39.462 39.462 0 0 0-17.559 32.803 39.462 39.462 0 0 0 39.461 39.461 39.462 39.462 0 0 0 39.461-39.461 39.462 39.462 0 0 0-17.576-32.803h19.553v-20.914h-27.107v-8.0899zm-706.01 8.0899c6.4277 2.8015 8.9453 7.1686 8.9453 12.978v61.205h2e-3v5.6816c0 4.8822 4.5831 11.268 11.518 11.268h56.322v-20.918h-39.859v-49.299h39.859v-20.916h-67.842zm86.975 0c6.4277 2.8015 8.9453 7.1686 8.9453 12.978v139.09h24.145v-92.314h12.172v92.314h24.145v-152.06h-33.09c6.4277 2.8015 8.9453 7.1686 8.9453 12.978v25.193h-12.172v-38.172h-24.145zm199.03 0c6.4277 2.8015 8.9453 7.1685 8.9453 12.978v70.051h26.365v-32.363h16.648v-21.529h-16.648v-29.137h-26.365zm62.533 0c6.4276 2.8015 8.9453 7.1666 8.9453 12.976v58.787c0 4.8822 4.585 11.266 11.52 11.266h74.889v-83.029h-86.408zm116.11 0c6.4277 2.8015 8.9453 7.1685 8.9453 12.978v70.051h26.367v-83.029h-26.367zm43.334 0c6.4278 2.8015 8.9434 7.1686 8.9434 12.978v7.9375h114.49v26.914h27.98v-36.562c0-4.8821-4.5851-11.268-11.52-11.268h-130.95zm256.87 0c6.4277 2.8015 8.9453 7.1685 8.9453 12.978v139.09h24.146v-92.314h12.17v92.314h24.146v-152.06h-33.092c6.4277 2.8015 8.9453 7.1685 8.9453 12.978v25.193h-12.17v-38.172h-24.146zm81.764 0c6.4276 2.8015 8.9453 7.1686 8.9453 12.978v7.9375h114.49v26.914h27.98v-36.562c0-4.8821-4.585-11.268-11.52-11.268h-130.95zm-462.76 20.914h33.674v41.199h-33.674zm-164.83 14.893a17.909 17.909 0 0 1 17.908 17.91 17.909 17.909 0 0 1-17.908 17.908 17.909 17.909 0 0 1-17.91-17.908 17.909 17.909 0 0 1 17.91-17.91zm501.32 0a17.909 17.909 0 0 1 17.908 17.91 17.909 17.909 0 0 1-17.908 17.908 17.909 17.909 0 0 1-17.908-17.908 17.909 17.909 0 0 1 17.908-17.91zm-203.42 22.707v20.916h51.912v18.143h-51.914v20.918h114.49v33.574h27.98v-43.225c0-4.8821-4.5851-11.268-11.52-11.268h-52.672v-18.143h64.191v-20.916zm338.63 0v20.916h56.053v27.879h26.367v-27.879h60.053v-20.916zm-498.07 33.875v48.408c0 4.8822 4.585 11.268 11.52 11.268h130.95v-20.918h-114.49v-38.758zm498.07 5.1836v43.225c0 4.8822 4.5831 11.266 11.518 11.266h130.95v-20.916h-114.49v-33.574zm-677.97 2.6875v40.537c0 4.8822 4.583 11.268 11.518 11.268h132.21v-20.918h-115.75v-30.887zm161.85 84.193c-3.7989 0-7.2759 0.6362-10.43 1.9082-3.1298 1.2484-5.9258 3.1203-8.3867 5.6172-2.652 2.6617-4.6219 5.6185-5.9121 8.8691-1.2902 3.2271-1.9355 6.8085-1.9355 10.742 0 4.923 1.0273 9.3631 3.082 13.32 2.0786 3.9337 5.0645 7.1845 8.959 9.752 1.983 1.3662 4.1806 2.3775 6.5937 3.0371 2.4132 0.6831 5.0906 1.0254 8.0293 1.0254 1.1947 0 2.3537-0.072 3.4766-0.2129 1.1468-0.1413 2.2569-0.3405 3.332-0.5996 2.2698-0.5653 4.5276-1.3775 6.7735-2.4375v-15.441c-2.0309 2.2141-4.0027 3.8153-5.9141 4.8047-1.9114 0.9657-3.9772 1.4492-6.1992 1.4492-4.0378 0-7.3474-1.3653-9.9278-4.0977-2.5803-2.7559-3.8691-6.1962-3.8691-10.318 0-4.4284 1.2775-8.0311 3.834-10.811s5.8773-4.1699 9.9629-4.1699c2.1742 0 4.2533 0.5067 6.2363 1.5195 1.9831 1.0129 3.9417 2.5793 5.877 4.6992v-15.404c-2.2937-1.1071-4.5402-1.9212-6.7383-2.4394-2.1981-0.5418-4.4784-0.8125-6.8438-0.8125zm70.494 0.07c-3.7273 0-7.3228 0.6962-10.787 2.0859-3.4644 1.3898-6.4748 3.3449-9.0313 5.8653-2.7237 2.6146-4.7783 5.5463-6.1641 8.7968-1.3857 3.2271-2.08 6.6905-2.08 10.389 0 3.651 0.7056 7.1242 2.1152 10.422 1.4097 3.2977 3.4285 6.2197 6.0566 8.7637 2.6282 2.5439 5.663 4.5106 9.1036 5.9004 3.4405 1.3662 7.036 2.0488 10.787 2.0488 3.6316 0 7.1914-0.6942 10.68-2.084 3.5122-1.3897 6.5941-3.3564 9.2461-5.9004 2.6521-2.544 4.6597-5.4408 6.0215-8.6914 1.3858-3.2506 2.0782-6.7373 2.0782-10.459 0-3.6982-0.7056-7.1848-2.1153-10.459-1.3858-3.2741-3.3914-6.1826-6.0195-8.7265-2.6282-2.5675-5.663-4.5342-9.1035-5.9004-3.4166-1.3662-7.0122-2.0508-10.787-2.0508zm178.9 0c-3.7272 0-7.3228 0.6962-10.787 2.0859-3.4644 1.3898-6.4748 3.3449-9.0313 5.8653-2.7237 2.6146-4.7783 5.5463-6.1641 8.7968-1.3857 3.2271-2.0781 6.6905-2.0781 10.389 0 3.651 0.7056 7.1242 2.1152 10.422 1.4097 3.2977 3.4286 6.2197 6.0567 8.7637 2.6281 2.5439 5.6611 4.5106 9.1016 5.9004 3.4405 1.3662 7.036 2.0488 10.787 2.0488 3.6316 0 7.1933-0.6942 10.682-2.084 3.5122-1.3897 6.594-3.3564 9.2461-5.9004 2.652-2.544 4.6577-5.4408 6.0195-8.6914 1.3858-3.2506 2.0801-6.7373 2.0801-10.459 0-3.6982-0.7056-7.1848-2.1152-10.459-1.3858-3.2741-3.3933-6.1826-6.0215-8.7265-2.6281-2.5675-5.6611-4.5342-9.1016-5.9004-3.4166-1.3662-7.014-2.0508-10.789-2.0508zm-586.74 1.166c3.78 1.6475 5.2598 4.2161 5.2598 7.6328v44.096h13.404v-20.246l12.041 20.246h16.164l-14.301-20.848c3.8466-0.848 6.763-2.5188 8.7461-5.0157 1.983-2.5204 2.9746-5.7711 2.9746-9.7519 0-2.591-0.52689-4.9948-1.5781-7.209-1.0274-2.2377-2.4611-4.0516-4.3008-5.4414-1.7202-1.272-3.7033-2.1673-5.9492-2.6855-2.2459-0.5183-6.3306-0.7774-12.256-0.7774h-14.945zm47.02 0c3.78 1.6475 5.2598 4.2161 5.2598 7.6328v44.096h32.148v-11.59h-18.207v-8.7266h17.168v-11.096h-17.168v-8.9746h18.207v-11.342h-32.148zm41.572 0c3.78 1.6475 5.2617 4.2161 5.2617 7.6328v44.096h13.402v-17.066h5.0176c4.4201 0 7.6337-0.2475 9.6406-0.7422 2.007-0.4946 3.7511-1.3068 5.2324-2.4375 1.9592-1.5075 3.4399-3.4394 4.4434-5.7949 1.0035-2.3555 1.5059-5.0648 1.5059-8.1269 0-2.8738-0.51364-5.4999-1.541-7.8789-1.0035-2.4027-2.4729-4.381-4.4082-5.9356-1.6247-1.3662-3.6435-2.3312-6.0566-2.8965-2.3892-0.5653-6.4871-0.8496-12.293-0.8496h-14.943zm46.268 0c3.78 1.6475 5.2598 4.2161 5.2598 7.6328v-7.6328zm5.2617 0-2e-3 21.978v5.3692c0 5.6532 0.35942 9.8477 1.0762 12.58 0.74066 2.7324 1.8997 5.0278 3.4766 6.8886 1.8397 2.0964 4.3007 3.6744 7.3828 4.7344 3.0821 1.0364 6.8921 1.5547 11.432 1.5547 4.444 0 8.2427-0.5299 11.396-1.5899 3.1538-1.0599 5.6148-2.6263 7.3828-4.6992 1.6486-1.8608 2.8188-4.1562 3.5117-6.8886 0.35835-1.3898 0.62176-3.1225 0.78906-5.1954 0.16731-2.0964 0.25196-4.5581 0.25196-7.3847v-27.348h-19.49c3.78 1.6475 5.2617 4.2161 5.2617 7.6328v17.525c0 3.5804-0.10733 6.2181-0.32226 7.9141-0.19115 1.6724-0.50158 3.0396-0.93164 4.0996-0.54952 1.3191-1.5185 2.3305-2.9043 3.0371-0.66898 0.3534-1.4216 0.6126-2.2578 0.7773-0.83621 0.1648-1.7318 0.2481-2.6875 0.2481-1.9353 0-3.5947-0.3539-4.9805-1.0606-1.3858-0.7066-2.3303-1.66-2.832-2.8613-0.47799-1.2013-0.81292-2.5685-1.0039-4.0996s-0.28516-4.2152-0.28516-8.0547v-25.158zm52.26 0c3.78 1.6475 5.2598 4.2161 5.2598 7.6328v44.096h14.801c5.9014 0 10.178-0.2011 12.83-0.6015 2.6759-0.424 4.9112-1.0951 6.7031-2.0137 2.222-1.1777 3.9172-2.8021 5.0879-4.875 1.1707-2.0728 1.7578-4.4998 1.7578-7.2793 0-3.8395-1.0518-6.9026-3.1543-9.1875-1.1229-1.2484-2.3779-2.1902-3.7637-2.8262-1.5291-0.7066-3.1885-1.0605-4.9805-1.0605 3.321-0.9187 5.733-2.2375 7.2383-3.957 1.5291-1.7196 2.293-4.0517 2.293-6.9961 0-2.2849-0.51364-4.3212-1.541-6.1114-1.0035-1.8137-2.4729-3.2505-4.4082-4.3105-1.6964-0.9423-3.7152-1.5901-6.0566-1.9434-2.3176-0.3769-6.4624-0.5664-12.436-0.5664h-14.371zm49.744 0c3.78 1.6475 5.2598 4.2161 5.2598 7.6328v44.096h32.076v-12.084h-17.777v-39.644h-14.299zm39.494 0c3.78 1.6475 5.2598 4.2161 5.2598 7.6328v44.096h14.443v-51.728h-14.443zm159.14 0c3.78 1.6475 5.2598 4.2161 5.2598 7.6328v44.096h13.941v-20.316h17.168v-11.096h-17.168v-8.9746h18.207v-11.342h-32.148zm64.108 0c3.7799 1.6475 5.2617 4.2161 5.2617 7.6328v44.096h14.156v-23.215l17.094 23.215h17.848l-21.072-26.5 19.389-25.228h-16.666l-16.592 23.496v-23.496h-14.156zm111.62 0c3.7799 1.6475 5.2597 4.2161 5.2597 7.6328v44.096h13.404v-20.246l12.041 20.246h16.162l-14.299-20.848c3.8467-0.848 6.7611-2.5188 8.7442-5.0157 1.983-2.5204 2.9746-5.7711 2.9746-9.7519 0-2.591-0.5249-4.9948-1.5762-7.209-1.0274-2.2377-2.4611-4.0516-4.3008-5.4414-1.7202-1.272-3.7033-2.1673-5.9492-2.6855-2.2459-0.5183-6.3306-0.7774-12.256-0.7774h-14.945zm46.578 0c3.78 1.6475 5.2597 4.2161 5.2597 7.6328v44.096h32.146v-11.59h-18.205v-8.7266h17.166v-11.096h-17.166v-8.9746h18.205v-11.342h-32.146zm54.037 0c3.78 1.6475 3.8459 3.2413 2.9277 6.668l-15.766 45.06h14.227l2.7246-9.2578h20.32l2.6523 9.2578h14.227l-18.133-51.728h-17.92zm66.648 0c3.78 1.6475 5.2617 4.2161 5.2617 7.6328v44.096h13.797v-32.234l23.762 32.234h13.725v-51.728h-13.725v31.898l-23.762-31.898h-13.797zm73.688 0c3.78 1.6475 3.8459 3.2413 2.9278 6.668l-15.766 45.06h14.227l2.7246-9.2578h20.32l2.6524 9.2578h14.226l-18.133-51.728h-17.92zm29.322 0c2.6747 1.5443 4.03 3.2882 5.2617 6.1836l19.375 45.545h10.894l22.004-51.728h-15.195l-10.43 28.938-0.7519 2.6504-1.0742 4.2754-1.1836-4.6992-0.5742-2.2266-10.5-28.938h-12.564zm60.398 0c2.6742 1.5439 4.172 4.0122 5.6133 6.1406l14.344 21.984v23.604h13.797v-23.604l18.35-28.125h-16.451l-6.9883 13.32-0.2852 0.5313c-0.8124 1.4133-1.3261 2.6973-1.541 3.8515-0.3106-1.2955-0.8242-2.6279-1.541-3.9941l-0.2168-0.3887-7.0586-13.32h-12.408zm-215.77 8.375 1.1113 4.4512 0.6797 2.5098 5.3399 17.064h-14.227l5.2676-17.064 0.8965-3.3223c0.1911-0.636 0.3454-1.2239 0.4648-1.7656 0.1433-0.5418 0.2995-1.1664 0.4668-1.8731zm140.34 0 1.1114 4.4512 0.6797 2.5098 5.3398 17.064h-14.227l5.2676-17.064 0.8965-3.3223c0.1912-0.636 0.3454-1.2239 0.4648-1.7656 0.1433-0.5418 0.2995-1.1664 0.4668-1.8731zm-660.83 1.8731h3.082c3.5122 0 5.8904 0.4003 7.1328 1.2011 1.2663 0.8009 1.8984 2.1662 1.8984 4.0977 0 1.8608-0.65664 3.1797-1.9707 3.957-1.3141 0.7773-3.7393 1.166-7.2754 1.166h-2.8672zm196.93 0.5293c3.8944 0 7.155 1.4484 9.7832 4.3457 1.3379 1.4839 2.3295 3.1219 2.9746 4.9121 0.645 1.7902 0.9687 3.7684 0.9687 5.9355 0 4.3577-1.3039 7.9855-3.9082 10.883-2.6042 2.8738-5.8761 4.3106-9.8183 4.3106-4.0378 0-7.3361-1.4136-9.8926-4.2403-2.5565-2.8501-3.834-6.5012-3.834-10.953 0-4.3577 1.302-7.9739 3.9062-10.848 2.6282-2.8973 5.902-4.3457 9.8204-4.3457zm178.9 0c3.8944 0 7.157 1.4484 9.7851 4.3457 1.338 1.4839 2.3295 3.1219 2.9746 4.9121s0.9668 3.7684 0.9668 5.9355c0 4.3577-1.302 7.9855-3.9062 10.883-2.6043 2.8738-5.8781 4.3106-9.8203 4.3106-4.0378 0-7.3342-1.4136-9.8907-4.2403-2.5564-2.8501-3.834-6.5012-3.834-10.953 0-4.3577 1.302-7.9739 3.9063-10.848 2.6281-2.8973 5.9-4.3457 9.8184-4.3457zm-568.07 0.07h2.8672c3.1299 0 5.352 0.5531 6.666 1.6601 1.338 1.0836 2.0059 2.9207 2.0059 5.5117 0 2.2142-0.71684 3.8406-2.1504 4.877-1.4096 1.0364-3.6542 1.5547-6.7363 1.5547h-2.6523zm616.48 0h2.8672c3.1299 0 5.3519 0.5531 6.666 1.6601 1.338 1.0836 2.0059 2.9207 2.0059 5.5117 0 2.2142-0.7169 3.8406-2.1504 4.877-1.4097 1.0364-3.6562 1.5547-6.7383 1.5547h-2.6504zm-527.89 0.2832h2.8672c3.3927 0 5.7578 0.4699 7.0957 1.4121 1.338 0.9186 2.0078 2.4502 2.0078 4.5937 0 2.2613-0.6811 3.8509-2.043 4.7696-1.3619 0.9186-3.7626 1.3789-7.2031 1.3789h-2.7246zm103.64 18.762h5.2324c3.4405 0 5.8188 0.4467 7.1328 1.3418 1.3141 0.8715 1.9707 2.3683 1.9707 4.4883 0 1.955-0.70362 3.3551-2.1133 4.2031-1.3858 0.8244-3.7885 1.2383-7.2051 1.2383h-5.0176z" fill="#010101" style="font-feature-settings:normal;font-variant-caps:normal;font-variant-ligatures:normal;font-variant-numeric:normal"/>
  </g>
 </g>
</svg>
